<svg width="70" height="70" viewBox="0 0 70 70" fill="none" xmlns="http://www.w3.org/2000/svg">
<rect width="70" height="70" rx="7" fill="#0D766E"/>
<g clip-path="url(#clip0_21_35)">
<path d="M29.7826 7.33905C39.4695 4.13035 50.8573 6.80737 58.0004 14.0929C44.8818 14.3439 31.6849 14.0335 18.572 14.3346C18.5347 27.8591 18.6727 41.406 18.4937 54.9137C9.51359 46.5034 7.45088 32.0141 13.2809 21.2763C16.7256 14.7622 22.7198 9.5792 29.7826 7.33905Z" fill="white"/>
<path d="M18.4241 14.2197C32.0953 14.2059 45.7483 14.0421 59.4235 14.1131C55.3605 17.0113 51.1027 19.6806 46.9694 22.4978C46.5376 22.8887 46.1078 22.3004 45.7042 22.1425C41.1371 19.4338 35.0336 19.5325 30.599 22.4682C24.2043 26.1324 27.8632 38.7282 31.4482 45.0398C34.1595 50.2716 14.3273 54.3531 20.2581 53.4055C22.5175 53.135 44.7462 47.6401 46.6381 46.4279C50.8477 49.2412 55.1235 51.9578 59.2889 54.8323C45.66 54.9133 32.035 54.8718 18.4221 54.9942C18.3518 41.4015 18.4322 27.8164 18.4241 14.2197Z" fill="white"/>
<path d="M19.09 54.8351C32.0594 54.8407 45.0287 54.7477 57.9943 54.7366C52.2463 60.626 43.74 63.686 35.5451 62.8699C29.1854 62.3196 23.1073 59.4362 18.5566 54.9931C18.7077 54.8611 18.8886 54.8054 19.09 54.8351Z" fill="white"/>
</g>
<defs>
<clipPath id="clip0_21_35">
<rect width="48" height="57" fill="white" transform="translate(10 6)"/>
</clipPath>
</defs>
</svg>
